REM DIRINDEX 1\2,1\3\5,1\3\6,1\4\7,1\4\8
REM DIRNAME cjc139,folder01,folder02,folder03,folder04,folder05,folder06,folder07
TITLE ""
FILE "EG_E3_12.mp3" MP3
  TRACK 01 AUDIO
    TITLE "0:"
    INDEX 01 00:00:00
  TRACK 02 AUDIO
    TITLE "5:cjc139_1731"
    INDEX 01 00:00:17
  TRACK 03 AUDIO
    TITLE "6:cjc139_1732"
    INDEX 01 00:03:08
  TRACK 04 AUDIO
    TITLE "5:cjc139_1733"
    INDEX 01 00:05:67
  TRACK 05 AUDIO
    TITLE "6:cjc139_1734"
    INDEX 01 00:08:66
  TRACK 06 AUDIO
    TITLE "5:cjc139_1735"
    INDEX 01 00:11:50
  TRACK 07 AUDIO
    TITLE "6:cjc139_1736"
    INDEX 01 00:13:63
  TRACK 08 AUDIO
    TITLE "5:cjc139_1737"
    INDEX 01 00:16:49
  TRACK 09 AUDIO
    TITLE "6:cjc139_1738"
    INDEX 01 00:20:32
  TRACK 10 AUDIO
    TITLE "5:cjc139_1739"
    INDEX 01 00:23:20
  TRACK 11 AUDIO
    TITLE "6:cjc139_1740"
    INDEX 01 00:27:26
  TRACK 12 AUDIO
    TITLE "5:cjc139_1741"
    INDEX 01 00:30:10
  TRACK 13 AUDIO
    TITLE "6:cjc139_1742"
    INDEX 01 00:33:30
  TRACK 14 AUDIO
    TITLE "5:cjc139_1743"
    INDEX 01 00:36:15
  TRACK 15 AUDIO
    TITLE "6:cjc139_1744"
    INDEX 01 00:39:64
  TRACK 16 AUDIO
    TITLE "5:cjc139_1745"
    INDEX 01 00:42:47
  TRACK 17 AUDIO
    TITLE "6:cjc139_1746"
    INDEX 01 00:44:73
  TRACK 18 AUDIO
    TITLE "5:cjc139_1747"
    INDEX 01 00:47:58
  TRACK 19 AUDIO
    TITLE "6:cjc139_1748"
    INDEX 01 00:50:60
  TRACK 20 AUDIO
    TITLE "5:cjc139_1749"
    INDEX 01 00:53:45
  TRACK 21 AUDIO
    TITLE "6:cjc139_1750"
    INDEX 01 00:56:45
  TRACK 22 AUDIO
    TITLE "5:cjc139_1751"
    INDEX 01 00:59:30
  TRACK 23 AUDIO
    TITLE "6:cjc139_1752"
    INDEX 01 01:01:48
  TRACK 24 AUDIO
    TITLE "5:cjc139_1753"
    INDEX 01 01:04:31
  TRACK 25 AUDIO
    TITLE "6:cjc139_1754"
    INDEX 01 01:07:23
  TRACK 26 AUDIO
    TITLE "5:cjc139_1755"
    INDEX 01 01:10:08
  TRACK 27 AUDIO
    TITLE "6:cjc139_1756"
    INDEX 01 01:12:66
  TRACK 28 AUDIO
    TITLE "5:cjc139_1757"
    INDEX 01 01:15:50
  TRACK 29 AUDIO
    TITLE "6:cjc139_1758"
    INDEX 01 01:18:21
  TRACK 30 AUDIO
    TITLE "5:cjc139_1759"
    INDEX 01 01:21:06
  TRACK 31 AUDIO
    TITLE "6:cjc139_1760"
    INDEX 01 01:24:37
  TRACK 32 AUDIO
    TITLE "5:cjc139_1761"
    INDEX 01 01:27:22
  TRACK 33 AUDIO
    TITLE "6:cjc139_1762"
    INDEX 01 01:30:71
  TRACK 34 AUDIO
    TITLE "5:cjc139_1763"
    INDEX 01 01:33:54
  TRACK 35 AUDIO
    TITLE "6:cjc139_1764"
    INDEX 01 01:36:43
  TRACK 36 AUDIO
    TITLE "5:cjc139_1765"
    INDEX 01 01:39:29
  TRACK 37 AUDIO
    TITLE "6:cjc139_1766"
    INDEX 01 01:42:16
  TRACK 38 AUDIO
    TITLE "5:cjc139_1767"
    INDEX 01 01:45:02
  TRACK 39 AUDIO
    TITLE "6:cjc139_1768"
    INDEX 01 01:47:56
  TRACK 40 AUDIO
    TITLE "5:cjc139_1769"
    INDEX 01 01:50:41
  TRACK 41 AUDIO
    TITLE "6:cjc139_1770"
    INDEX 01 01:53:65
  TRACK 42 AUDIO
    TITLE "5:cjc139_1771"
    INDEX 01 01:56:49
  TRACK 43 AUDIO
    TITLE "6:cjc139_1772"
    INDEX 01 02:00:49
  TRACK 44 AUDIO
    TITLE "5:cjc139_1773"
    INDEX 01 02:03:36
  TRACK 45 AUDIO
    TITLE "6:cjc139_1774"
    INDEX 01 02:07:31
  TRACK 46 AUDIO
    TITLE "5:cjc139_1775"
    INDEX 01 02:10:14
  TRACK 47 AUDIO
    TITLE "6:cjc139_1776"
    INDEX 01 02:13:73
  TRACK 48 AUDIO
    TITLE "5:cjc139_1777"
    INDEX 01 02:16:58
  TRACK 49 AUDIO
    TITLE "6:cjc139_1778"
    INDEX 01 02:20:12
  TRACK 50 AUDIO
    TITLE "5:cjc139_1779"
    INDEX 01 02:22:72
  TRACK 51 AUDIO
    TITLE "6:cjc139_1780"
    INDEX 01 02:26:05
  TRACK 52 AUDIO
    TITLE "5:cjc139_1781"
    INDEX 01 02:28:65
  TRACK 53 AUDIO
    TITLE "6:cjc139_1782"
    INDEX 01 02:31:65
  TRACK 54 AUDIO
    TITLE "5:cjc139_1783"
    INDEX 01 02:34:50
  TRACK 55 AUDIO
    TITLE "6:cjc139_1784"
    INDEX 01 02:38:16
  TRACK 56 AUDIO
    TITLE "5:cjc139_1785"
    INDEX 01 02:41:01
  TRACK 57 AUDIO
    TITLE "6:cjc139_1786"
    INDEX 01 02:43:12
  TRACK 58 AUDIO
    TITLE "5:cjc139_1787"
    INDEX 01 02:45:73
  TRACK 59 AUDIO
    TITLE "6:cjc139_1788"
    INDEX 01 02:47:54
  TRACK 60 AUDIO
    TITLE "5:cjc139_1789"
    INDEX 01 02:50:39
  TRACK 61 AUDIO
    TITLE "6:cjc139_1790"
    INDEX 01 02:53:04
  TRACK 62 AUDIO
    TITLE "5:cjc139_1791"
    INDEX 01 02:55:62
  TRACK 63 AUDIO
    TITLE "6:cjc139_1792"
    INDEX 01 02:58:64
  TRACK 64 AUDIO
    TITLE "5:cjc139_1793"
    INDEX 01 03:01:49
  TRACK 65 AUDIO
    TITLE "6:cjc139_1794"
    INDEX 01 03:03:69
  TRACK 66 AUDIO
    TITLE "5:cjc139_1795"
    INDEX 01 03:06:52
  TRACK 67 AUDIO
    TITLE "6:cjc139_1796"
    INDEX 01 03:08:70
  TRACK 68 AUDIO
    TITLE "5:cjc139_1797"
    INDEX 01 03:11:55
  TRACK 69 AUDIO
    TITLE "6:cjc139_1798"
    INDEX 01 03:13:54
  TRACK 70 AUDIO
    TITLE "5:cjc139_1799"
    INDEX 01 03:16:40
  TRACK 71 AUDIO
    TITLE "6:cjc139_1800"
    INDEX 01 03:19:09
  TRACK 72 AUDIO
    TITLE "0:"
    INDEX 01 03:22:02
